<svg width="80" height="80" viewBox="0 0 80 80" fill="none" xmlns="http://www.w3.org/2000/svg">
<path d="M11.75 11.75C3.91667 19.55 0 28.9667 0 40C0 51.0333 3.91667 60.4667 11.75 68.3C19.55 76.1 28.9667 80 40 80C51.1 80 60.55 76.1 68.35 68.3C76.1167 60.4667 80 51.0333 80 40C80 28.9667 76.1167 19.55 68.35 11.75C60.55 3.91667 51.1 0 40 0C28.9667 0 19.55 3.91667 11.75 11.75ZM64.25 15.8C70.95 22.4333 74.3 30.5 74.3 40C74.3 49.4333 70.95 57.5167 64.25 64.25C57.5833 70.95 49.5 74.3 40 74.3C30.5 74.3 22.4333 70.95 15.8 64.25C9.06665 57.5167 5.70001 49.4333 5.70001 40C5.70001 30.5 9.06665 22.4333 15.8 15.8C22.4333 9.06665 30.5 5.70001 40 5.70001C49.5 5.70001 57.5833 9.06665 64.25 15.8Z" fill="url(#paint0_linear_287_3342)"/>
<path d="M74.2999 39.9999C74.2999 30.4999 70.9499 22.4333 64.2499 15.7999C57.5833 9.06659 49.4999 5.69995 39.9999 5.69995C30.4999 5.69995 22.4333 9.06659 15.7999 15.7999C9.06659 22.4333 5.69995 30.4999 5.69995 39.9999C5.69995 49.4333 9.06659 57.5166 15.7999 64.2499C22.4333 70.9499 30.4999 74.2999 39.9999 74.2999C49.4999 74.2999 57.5833 70.9499 64.2499 64.2499C70.9499 57.5166 74.2999 49.4333 74.2999 39.9999Z" fill="#979797"/>
<path d="M53.65 24.1V24.15C52.5834 23.05 51.3166 22.75 49.85 23.25C49.75 23.25 49.65 23.2667 49.55 23.3C47.95 24 47.1 25.25 47 27.05V32.05L35 32.1C34.4667 32.1 34 32.3 33.6 32.7C33.2 33.1 33 33.5667 33 34.1V47C33 47.6 33.2167 48.0667 33.65 48.4C34.05 48.7667 34.5 48.95 35 48.95H47V54.05C47.1667 55.95 48.05 57.1833 49.65 57.75H49.6C50.0666 57.95 50.5333 58.05 51 58.05H51.05C51.9167 58.1167 52.75 57.8 53.55 57.1L53.6 57.05C53.6666 56.9833 53.7167 56.9167 53.75 56.85L67.85 43.15H67.8C68.6 42.4167 69 41.55 69 40.55C69 39.65 68.6667 38.8167 68 38.05C67.9333 37.9833 67.8667 37.9333 67.8 37.9L53.65 24.1Z" fill="#383838"/>
<path d="M27.4 23.9999C27.3333 24.0666 27.2833 24.1333 27.25 24.1999L13.15 37.8999H13.2C12.4 38.6332 12 39.4999 12 40.4999C12 41.3999 12.3333 42.2332 13 42.9999C13.0667 43.0666 13.1333 43.1166 13.2 43.1499L27.35 56.9499V56.8999C28.4167 57.9999 29.6833 58.2999 31.15 57.7999C31.25 57.7999 31.35 57.7832 31.45 57.7499C33.05 57.0499 33.9 55.7999 34 53.9999V48.9999L46 48.9499C46.5333 48.9499 47 48.7499 47.4 48.3499C47.8 47.9499 48 47.4833 48 46.9499V34.0499C48 33.4499 47.7833 32.9832 47.35 32.6499C46.9609 32.2832 46.5109 32.0999 46 32.0999H34V26.9999C33.8333 25.0999 32.95 23.8666 31.35 23.2999H31.4C30.9333 23.0999 30.4667 22.9999 30 22.9999H29.95C29.0833 22.9332 28.25 23.2499 27.45 23.9499L27.4 23.9999Z" fill="#383838"/>
<defs>
<linearGradient id="paint0_linear_287_3342" x1="40" y1="0" x2="40" y2="80" gradientUnits="userSpaceOnUse">
<stop stop-color="#979797"/>
<stop offset="1" stop-color="#3B3B3B"/>
</linearGradient>
</defs>
</svg>
