<svg width="80" height="80" viewBox="0 0 80 80" fill="none" xmlns="http://www.w3.org/2000/svg">
<path d="M11.75 11.75C3.91667 19.55 0 28.9667 0 40C0 51.0333 3.91667 60.4667 11.75 68.3C19.55 76.1 28.9667 80 40 80C51.1 80 60.55 76.1 68.35 68.3C76.1166 60.4667 80 51.0333 80 40C80 28.9667 76.1166 19.55 68.35 11.75C60.55 3.91667 51.1 0 40 0C28.9667 0 19.55 3.91667 11.75 11.75ZM5.70001 40C5.70001 30.5 9.06665 22.4333 15.8 15.8C22.4333 9.06665 30.5 5.70001 40 5.70001C49.5 5.70001 57.5833 9.06665 64.25 15.8C70.95 22.4333 74.3 30.5 74.3 40C74.3 49.4333 70.95 57.5167 64.25 64.25C57.5833 70.95 49.5 74.3 40 74.3C30.5 74.3 22.4333 70.95 15.8 64.25C9.06665 57.5167 5.70001 49.4333 5.70001 40Z" fill="url(#paint0_linear_287_3354)"/>
<path d="M15.7999 15.7999C9.06659 22.4333 5.69995 30.4999 5.69995 39.9999C5.69995 49.4333 9.06659 57.5166 15.7999 64.2499C22.4333 70.9499 30.4999 74.2999 39.9999 74.2999C49.4999 74.2999 57.5833 70.9499 64.2499 64.2499C70.9499 57.5166 74.2999 49.4333 74.2999 39.9999C74.2999 30.4999 70.9499 22.4333 64.2499 15.7999C57.5833 9.06659 49.4999 5.69995 39.9999 5.69995C30.4999 5.69995 22.4333 9.06659 15.7999 15.7999Z" fill="#979797"/>
<path d="M23.3 41.45C24 43.05 25.25 43.9 27.05 44H32.05L32.1 56C32.1 56.5333 32.3 57 32.7 57.4C33.1 57.8 33.5666 58 34.1 58H47C47.6 58 48.0667 57.7833 48.4 57.35C48.7667 56.95 48.95 56.5 48.95 56V44H54.05C55.95 43.8333 57.1833 42.95 57.75 41.35V41.4C57.95 40.9333 58.05 40.4667 58.05 40V39.95C58.1166 39.0833 57.8 38.25 57.1 37.45L57.05 37.4C56.9833 37.3333 56.9166 37.2833 56.85 37.25L43.15 23.15V23.2C42.4167 22.4 41.55 22 40.55 22C39.65 22 38.8166 22.3333 38.05 23C37.9833 23.0667 37.9334 23.1333 37.9 23.2L24.1 37.35H24.15C23.05 38.4167 22.75 39.6833 23.25 41.15C23.25 41.25 23.2666 41.35 23.3 41.45Z" fill="#383838"/>
<defs>
<linearGradient id="paint0_linear_287_3354" x1="40" y1="0" x2="40" y2="80" gradientUnits="userSpaceOnUse">
<stop stop-color="#959595"/>
<stop offset="1" stop-color="#3F3F3F"/>
</linearGradient>
</defs>
</svg>
